<!-- Generated by IcoMoon.io -->
<svg version="1.1" xmlns="http://www.w3.org/2000/svg" width="31" height="32" viewBox="0 0 31 32">
<title>cards</title>
<path fill="#889099" d="M29.567 15.002l-13.78-14.165c-0.543-0.558-1.254-0.837-1.966-0.837s-1.423 0.279-1.966 0.837l-7.547 7.755c-1.086 1.116-1.086 2.96 0 4.076l1.251 1.321h2.885l-2.693-2.804c-0.189-0.195-0.217-0.438-0.217-0.556s0.028-0.353 0.217-0.546l0.996-0.993 4.736 4.899h4.543l-7.007-7.238 4.279-4.415c0.189-0.194 0.409-0.231 0.523-0.231s0.335 0.024 0.523 0.218l13.781 14.163c0.189 0.195 0.218 0.419 0.218 0.537s-0.049 0.343-0.238 0.538l-0.781 0.784v2.965l2.225-2.266c1.085-1.118 1.105-2.927 0.018-4.043z"></path>
<path fill="#889099" d="M23.101 15.317h-19.491c-1.535 0-2.848 1.271-2.848 2.849v7.577h25.084v-7.577c0-1.578-1.21-2.849-2.745-2.849zM7.574 23.163c-0.544 0-1.037-0.223-1.4-0.582-0.363 0.359-0.857 0.582-1.4 0.582-1.117 0-2.023-0.93-2.023-2.080 0-1.148 0.906-2.079 2.023-2.079 0.544 0 1.037 0.222 1.4 0.581 0.363-0.359 0.856-0.581 1.4-0.581 1.117 0 2.023 0.931 2.023 2.079 0 1.15-0.906 2.080-2.023 2.080z"></path>
<path fill="#889099" d="M0.762 29.134c0 1.578 1.312 2.866 2.848 2.866h19.491c1.535 0 2.746-1.288 2.746-2.866v-0.168h-25.085v0.168z"></path>
</svg>
