<svg width="31" height="11" viewBox="0 0 31 11" fill="none" xmlns="http://www.w3.org/2000/svg">
<path d="M12.4134 0.886719L10.8379 10.1322H13.3576L14.9344 0.886719H12.4134Z" fill="#C4CBD2"/>
<path d="M8.72347 0.897452L6.2556 7.20257L5.99248 6.25055C5.50578 5.10346 4.12408 3.45605 2.50195 2.41783L4.75855 10.128L7.42473 10.1234L11.3929 0.895508L8.72347 0.897452Z" fill="#C4CBD2"/>
<path d="M5.03684 1.55971C4.89037 0.996536 4.46588 0.828684 3.939 0.808594H0.0324037L0 0.992647C3.04012 1.73016 5.05174 3.50718 5.88646 5.64388L5.03684 1.55971Z" fill="#C4CBD2"/>
<path d="M20.0404 2.65978C20.8648 2.64682 21.4623 2.82698 21.9263 3.01363L22.1538 3.12056L22.4947 1.11671C21.9957 0.929418 21.2134 0.728516 20.2374 0.728516C17.7475 0.728516 15.9925 1.98254 15.9789 3.77965C15.9627 5.10755 17.2291 5.84895 18.1856 6.29159C19.1675 6.74524 19.4967 7.03363 19.4922 7.43868C19.4844 8.05759 18.7093 8.34145 17.9854 8.34145C16.9763 8.34145 16.4404 8.20211 15.6128 7.85734L15.2881 7.70957L14.9336 9.77888C15.5233 10.0375 16.6115 10.2597 17.7411 10.2714C20.3897 10.2714 22.111 9.03229 22.1292 7.11205C22.1402 6.06152 21.4681 5.25985 20.0119 4.60206C19.1305 4.17303 18.5913 3.88788 18.5965 3.45496C18.5965 3.07066 19.0541 2.65978 20.0404 2.65978Z" fill="#C4CBD2"/>
<path d="M28.9614 0.897461H27.0146C26.4099 0.897461 25.9602 1.06207 25.6945 1.66478L21.9531 10.1377H24.5992C24.5992 10.1377 25.0308 8.99839 25.1287 8.74888C25.4184 8.74888 27.9893 8.75277 28.3555 8.75277C28.4306 9.07551 28.6626 10.1377 28.6626 10.1377H31.0002L28.9614 0.897461ZM25.8539 6.85651C26.0613 6.32573 26.8578 4.27263 26.8578 4.27263C26.8441 4.29791 27.0632 3.73797 27.1935 3.38995L27.3633 4.18709C27.3633 4.18709 27.8461 6.39443 27.9472 6.85651H25.8539Z" fill="#C4CBD2"/>
</svg>
