<!-- Generated by IcoMoon.io -->
<svg version="1.1" xmlns="http://www.w3.org/2000/svg" width="33" height="32" viewBox="0 0 33 32">
<title>delivery-truck</title>
<path fill="#889099" d="M1.154 19.74v-13.615c0-0.757 0.63-1.37 1.408-1.37h13.986c0.777 0 1.408 0.613 1.408 1.37v13.615c0 0.252-0.21 0.457-0.469 0.457h-15.863c-0.259 0-0.469-0.204-0.469-0.457zM12.448 24.404c0 1.569-1.307 2.841-2.92 2.841s-2.92-1.272-2.92-2.841c0-1.569 1.307-2.841 2.92-2.841s2.92 1.272 2.92 2.841zM10.988 24.404c0-0.785-0.654-1.421-1.46-1.421s-1.46 0.636-1.46 1.421c0 0.785 0.654 1.421 1.46 1.421s1.46-0.636 1.46-1.421zM7.013 21.563h-6.543c-0.259 0-0.469 0.204-0.469 0.457v1.385c0 0.252 0.21 0.457 0.469 0.457h5.245c0.137-0.914 0.611-1.722 1.299-2.299zM27.727 24.404c0 1.569-1.307 2.841-2.92 2.841s-2.92-1.272-2.92-2.841c0-1.569 1.307-2.841 2.92-2.841s2.92 1.272 2.92 2.841zM26.267 24.404c0-0.785-0.654-1.421-1.46-1.421s-1.46 0.636-1.46 1.421c0 0.785 0.654 1.421 1.46 1.421s1.46-0.636 1.46-1.421zM32.889 22.019v1.385c0 0.252-0.21 0.457-0.469 0.457h-3.8c-0.272-1.814-1.876-3.212-3.813-3.212s-3.542 1.398-3.814 3.212h-7.651c-0.137-0.914-0.611-1.722-1.299-2.299h7.255v-13.061c0-0.504 0.42-0.913 0.939-0.913h4.431c1.248 0 2.413 0.603 3.112 1.609l2.856 4.116c0.419 0.604 0.643 1.316 0.643 2.044v6.205h1.142c0.259 0 0.469 0.204 0.469 0.457zM28.128 13.419l-2.284-3.158c-0.088-0.122-0.231-0.194-0.384-0.194h-3.563c-0.259 0-0.469 0.204-0.469 0.457v3.158c0 0.252 0.21 0.457 0.469 0.457h5.847c0.38 0 0.602-0.417 0.384-0.719z"></path>
</svg>
