<!-- Generated by IcoMoon.io -->
<svg version="1.1" xmlns="http://www.w3.org/2000/svg" width="99" height="32" viewBox="0 0 99 32">
<title>golden</title>
<path fill="#fbdd37" d="M92.769 14.884c0.883-1.127 1.041-2.192 0.791-3.15 4.219-0.127 3.211-6.635 3.211-6.635-3.453 1.439-4.072 3.583-4.029 5.038-1.42-1.859-3.98-3.040-3.98-3.040-1.347 6.962 4.006 7.787 4.006 7.787z"></path>
<path fill="#fbdd37" d="M91.67 18.492c0.73 0.454 1.408 0.644 2.032 0.644 3.311 0 5.111-5.366 5.111-5.366-0.352-0.029-0.688-0.043-1.007-0.043-5.926-0-6.136 4.765-6.136 4.765z"></path>
<path fill="#fbdd37" d="M90.89 21.481c1.331-2.951-2-7.245-2-7.245-3.756 4.745-1.384 7.84-0.399 8.808-0.943 1-1.288 2.014-1.288 2.014 1.040 1.16 2.145 1.605 3.228 1.605 3.519 0 6.792-4.701 6.792-4.701-1.576-0.604-2.92-0.847-4.063-0.847-0.867 0-1.62 0.139-2.269 0.366z"></path>
<path fill="#fbdd37" d="M81.99 28.479c5.763-0.489 3.104-8.601 3.104-8.601-6.28 3.921-3.104 8.601-3.104 8.601z"></path>
<path fill="#fbdd37" d="M73.204 31.628c-0.37 0-0.698-0.267-0.762-0.645-0.070-0.42 0.214-0.818 0.635-0.89 8.296-1.392 14.028-4.614 17.031-9.577 2.147-3.548 2.47-7.358 2.364-9.931-0.116-2.796-0.744-4.745-0.751-4.765-0.132-0.405 0.089-0.842 0.495-0.975s0.842 0.088 0.975 0.495c0.028 0.087 0.701 2.173 0.826 5.18 0.074 1.767-0.058 3.491-0.391 5.122-0.418 2.049-1.157 3.959-2.195 5.674-3.247 5.365-9.337 8.831-18.097 10.301-0.044 0.007-0.088 0.010-0.129 0.010z"></path>
<path fill="#fbdd37" d="M92.645 6.135c2.518-3.81-3.81-6.135-3.81-6.135-0.647 5.813 3.81 6.135 3.81 6.135z"></path>
<path fill="#fbdd37" d="M6.045 14.884c-0.883-1.127-1.041-2.192-0.791-3.15-4.219-0.127-3.212-6.635-3.212-6.635 3.454 1.439 4.073 3.583 4.029 5.038 1.421-1.859 3.98-3.040 3.98-3.040 1.347 6.962-4.006 7.787-4.006 7.787z"></path>
<path fill="#fbdd37" d="M7.143 18.492c-0.73 0.454-1.408 0.644-2.032 0.644-3.311 0-5.111-5.366-5.111-5.366 0.352-0.029 0.688-0.043 1.007-0.043 5.926-0 6.135 4.765 6.135 4.765z"></path>
<path fill="#fbdd37" d="M7.924 21.481c-1.331-2.951 2-7.245 2-7.245 3.756 4.745 1.384 7.84 0.398 8.808 0.943 1 1.288 2.014 1.288 2.014-1.040 1.16-2.145 1.605-3.227 1.605-3.519 0-6.792-4.701-6.792-4.701 1.576-0.604 2.921-0.847 4.064-0.847 0.867 0 1.62 0.139 2.269 0.366z"></path>
<path fill="#fbdd37" d="M16.824 28.479c-5.763-0.489-3.104-8.601-3.104-8.601 6.28 3.921 3.104 8.601 3.104 8.601z"></path>
<path fill="#fbdd37" d="M25.609 31.628c0.37 0 0.698-0.267 0.762-0.645 0.070-0.42-0.214-0.818-0.635-0.89-8.296-1.392-14.028-4.614-17.031-9.577-2.147-3.548-2.47-7.358-2.364-9.931 0.117-2.796 0.745-4.745 0.752-4.765 0.132-0.405-0.089-0.842-0.495-0.975s-0.842 0.088-0.975 0.495c-0.028 0.087-0.701 2.173-0.826 5.18-0.074 1.767 0.058 3.491 0.391 5.122 0.418 2.049 1.157 3.959 2.195 5.674 3.248 5.365 9.337 8.831 18.097 10.301 0.044 0.007 0.087 0.010 0.129 0.010z"></path>
<path fill="#fbdd37" d="M6.168 6.135c-2.519-3.81 3.81-6.135 3.81-6.135 0.646 5.813-3.81 6.135-3.81 6.135z"></path>
</svg>
