<!-- Generated by IcoMoon.io -->
<svg version="1.1" xmlns="http://www.w3.org/2000/svg" width="50" height="32" viewBox="0 0 50 32">
<title>mastercard</title>
<path fill="#c4cbd2" d="M34.261 0.483c-3.401 0-6.684 1.112-9.372 3.152-2.688-2.040-5.971-3.152-9.372-3.152-8.556 0-15.517 6.961-15.517 15.517s6.961 15.517 15.517 15.517c3.401 0 6.684-1.112 9.372-3.152 2.688 2.040 5.971 3.152 9.372 3.152 8.556 0 15.517-6.961 15.517-15.517s-6.961-15.517-15.517-15.517zM24.889 7.582c0.481 0.536 0.915 1.112 1.299 1.721h-2.597c0.383-0.608 0.818-1.185 1.299-1.721zM22.239 12.219h5.3c0.238 0.757 0.403 1.533 0.494 2.322h-6.288c0.091-0.79 0.256-1.565 0.494-2.322zM21.745 17.458h6.288c-0.091 0.789-0.256 1.565-0.494 2.322h-5.3c-0.238-0.757-0.404-1.533-0.494-2.322zM24.889 24.417c-0.481-0.536-0.916-1.112-1.299-1.721h2.597c-0.383 0.608-0.818 1.185-1.298 1.721zM34.261 28.599c-2.586 0-5.087-0.79-7.186-2.25 1.203-1.345 2.173-2.899 2.844-4.567 0.74-1.84 1.115-3.786 1.115-5.783s-0.375-3.942-1.115-5.783c-0.67-1.668-1.641-3.222-2.844-4.567 2.1-1.46 4.601-2.25 7.186-2.25 6.948 0 12.6 5.652 12.6 12.6s-5.652 12.6-12.6 12.6z"></path>
</svg>
