<svg width="16" height="16" viewBox="0 0 16 16" fill="none" xmlns="http://www.w3.org/2000/svg">
<g id="search" clip-path="url(#clip0_7_382)">
<path id="Vector" d="M15.4886 14.5735L11.6805 10.6129C12.6597 9.44901 13.1961 7.98455 13.1961 6.45999C13.1961 2.89801 10.2981 0 6.73612 0C3.17413 0 0.276123 2.89801 0.276123 6.45999C0.276123 10.022 3.17413 12.92 6.73612 12.92C8.07334 12.92 9.34764 12.5167 10.4371 11.751L14.2741 15.7416C14.4345 15.9082 14.6502 16 14.8813 16C15.1001 16 15.3077 15.9166 15.4653 15.7649C15.8 15.4428 15.8107 14.9085 15.4886 14.5735ZM6.73612 1.68522C9.36899 1.68522 11.5109 3.82713 11.5109 6.45999C11.5109 9.09286 9.36899 11.2348 6.73612 11.2348C4.10325 11.2348 1.96134 9.09286 1.96134 6.45999C1.96134 3.82713 4.10325 1.68522 6.73612 1.68522Z" fill="#373D43"/>
</g>
<defs>
<clipPath id="clip0_7_382">
<rect width="16" height="16" fill="white"/>
</clipPath>
</defs>
</svg>
