<!-- Generated by IcoMoon.io -->
<svg version="1.1" xmlns="http://www.w3.org/2000/svg" width="32" height="32" viewBox="0 0 32 32">
<title>shopping-cart</title>
<path fill="#889099" d="M24.615 27.077c0 0.68 0.241 1.26 0.721 1.74s1.061 0.721 1.741 0.721c0.679 0 1.259-0.241 1.74-0.721s0.721-1.060 0.721-1.74-0.24-1.26-0.721-1.741c-0.48-0.48-1.061-0.721-1.74-0.721-0.68 0-1.26 0.241-1.741 0.721s-0.721 1.061-0.721 1.741z"></path>
<path fill="#889099" d="M31.635 5.288c-0.244-0.244-0.532-0.365-0.865-0.365h-23.096c-0.013-0.090-0.042-0.253-0.087-0.49s-0.080-0.426-0.106-0.567c-0.026-0.141-0.074-0.311-0.144-0.509s-0.154-0.356-0.25-0.471c-0.096-0.116-0.224-0.215-0.384-0.298s-0.343-0.125-0.548-0.125h-4.923c-0.334 0-0.622 0.122-0.866 0.365s-0.365 0.532-0.365 0.865 0.122 0.622 0.365 0.865c0.244 0.244 0.532 0.365 0.866 0.365h3.923l3.404 15.827c-0.025 0.051-0.157 0.295-0.394 0.731s-0.426 0.817-0.567 1.144c-0.141 0.327-0.212 0.58-0.212 0.76 0 0.333 0.122 0.622 0.365 0.866 0.244 0.243 0.532 0.365 0.866 0.365h19.692c0.333 0 0.622-0.122 0.865-0.365s0.366-0.532 0.366-0.866c0-0.333-0.122-0.622-0.366-0.865s-0.532-0.366-0.865-0.366h-17.692c0.308-0.615 0.462-1.025 0.462-1.23 0-0.129-0.016-0.27-0.048-0.423s-0.071-0.324-0.115-0.51c-0.045-0.185-0.074-0.323-0.086-0.413l20.077-2.346c0.32-0.039 0.583-0.176 0.788-0.414s0.308-0.509 0.308-0.817v-9.846c-0-0.333-0.122-0.622-0.365-0.866z"></path>
<path fill="#889099" d="M7.384 27.077c0 0.68 0.24 1.26 0.721 1.74s1.061 0.721 1.741 0.721c0.679 0 1.259-0.241 1.74-0.721s0.721-1.060 0.721-1.74-0.24-1.26-0.721-1.741c-0.481-0.48-1.061-0.721-1.74-0.721s-1.26 0.241-1.741 0.721c-0.481 0.481-0.721 1.061-0.721 1.741z"></path>
</svg>
