<svg aria-hidden="true" style="position: absolute; width: 0; height: 0; overflow: hidden;" version="1.1" xmlns="http://www.w3.org/2000/svg" xmlns:xlink="http://www.w3.org/1999/xlink">
<defs>
<symbol id="icon-untitled" viewBox="0 0 39 32">
<path fill="#edf1f7" style="fill: var(--color1, #edf1f7)" d="M0.125 27.448c0-0.928 0.743-1.666 1.652-1.848 1.664-0.333 2.94-1.102 3.828-2.308 0.967-1.312 1.531-3.313 1.694-6.003 0.057-0.948-0.721-1.72-1.671-1.72h-3.908c-0.95 0-1.72-0.77-1.72-1.72v-12.129c0-0.95 0.77-1.72 1.72-1.72h13.25c0.95 0 1.72 0.77 1.72 1.72v10.735c0 6.726-1.287 11.667-3.861 14.823-2.317 2.84-5.978 4.402-10.985 4.686-0.949 0.054-1.72-0.723-1.72-1.673v-2.843zM21.798 27.448c0-0.928 0.743-1.666 1.652-1.848 1.664-0.333 2.94-1.102 3.828-2.308 0.967-1.312 1.531-3.313 1.694-6.003 0.057-0.948-0.721-1.72-1.671-1.72h-3.908c-0.95 0-1.72-0.77-1.72-1.72v-12.129c0-0.95 0.77-1.72 1.72-1.72h13.25c0.95 0 1.72 0.77 1.72 1.72v10.735c0 6.726-1.287 11.667-3.861 14.823-2.317 2.84-5.978 4.402-10.985 4.686-0.949 0.054-1.72-0.723-1.72-1.673v-2.843z"></path>
</symbol>
<symbol id="icon-yellowbox" viewBox="0 0 32 32">
<path fill="#fbdd37" style="fill: var(--color2, #fbdd37)" d="M0 0h32v32h-32v-32z"></path>
</symbol>
<symbol id="icon-mastercard" viewBox="0 0 50 32">
<path fill="#c4cbd2" style="fill: var(--color3, #c4cbd2)" d="M34.261 0.483c-3.401 0-6.684 1.112-9.372 3.152-2.688-2.040-5.971-3.152-9.372-3.152-8.556 0-15.517 6.961-15.517 15.517s6.961 15.517 15.517 15.517c3.401 0 6.684-1.112 9.372-3.152 2.688 2.040 5.971 3.152 9.372 3.152 8.556 0 15.517-6.961 15.517-15.517s-6.961-15.517-15.517-15.517zM24.889 7.582c0.481 0.536 0.915 1.112 1.299 1.721h-2.597c0.383-0.608 0.818-1.185 1.299-1.721zM22.239 12.219h5.3c0.238 0.757 0.403 1.533 0.494 2.322h-6.288c0.091-0.79 0.256-1.565 0.494-2.322zM21.745 17.458h6.288c-0.091 0.789-0.256 1.565-0.494 2.322h-5.3c-0.238-0.757-0.404-1.533-0.494-2.322zM24.889 24.417c-0.481-0.536-0.916-1.112-1.299-1.721h2.597c-0.383 0.608-0.818 1.185-1.298 1.721zM34.261 28.599c-2.586 0-5.087-0.79-7.186-2.25 1.203-1.345 2.173-2.899 2.844-4.567 0.74-1.84 1.115-3.786 1.115-5.783s-0.375-3.942-1.115-5.783c-0.67-1.668-1.641-3.222-2.844-4.567 2.1-1.46 4.601-2.25 7.186-2.25 6.948 0 12.6 5.652 12.6 12.6s-5.652 12.6-12.6 12.6z"></path>
</symbol>
<symbol id="icon-slide-left" viewBox="0 0 32 32">
<path fill="#fbdd37" style="fill: var(--color2, #fbdd37)" d="M0 16c0 8.837 7.163 16 16 16s16-7.163 16-16c0-8.837-7.163-16-16-16s-16 7.163-16 16z"></path>
<path fill="none" stroke="#373d43" style="stroke: var(--color4, #373d43)" stroke-linejoin="miter" stroke-linecap="butt" stroke-miterlimit="4" stroke-width="0.9552" d="M17.672 12.418l-3.821 3.587 3.821 4.055"></path>
</symbol>
<symbol id="icon-slide-right" viewBox="0 0 32 32">
<path fill="#fbdd37" style="fill: var(--color2, #fbdd37)" d="M32 16c0 8.837-7.163 16-16 16s-16-7.163-16-16c0-8.837 7.163-16 16-16s16 7.163 16 16z"></path>
<path fill="none" stroke="#373d43" style="stroke: var(--color4, #373d43)" stroke-linejoin="miter" stroke-linecap="butt" stroke-miterlimit="4" stroke-width="0.9552" d="M14.328 12.418l3.821 3.587-3.821 4.055"></path>
</symbol>
<symbol id="icon-golden" viewBox="0 0 99 32">
<path fill="#fbdd37" style="fill: var(--color2, #fbdd37)" d="M92.769 14.884c0.883-1.127 1.041-2.192 0.791-3.15 4.219-0.127 3.211-6.635 3.211-6.635-3.453 1.439-4.072 3.583-4.029 5.038-1.42-1.859-3.98-3.040-3.98-3.040-1.347 6.962 4.006 7.787 4.006 7.787z"></path>
<path fill="#fbdd37" style="fill: var(--color2, #fbdd37)" d="M91.67 18.492c0.73 0.454 1.408 0.644 2.032 0.644 3.311 0 5.111-5.366 5.111-5.366-0.352-0.029-0.688-0.043-1.007-0.043-5.926-0-6.136 4.765-6.136 4.765z"></path>
<path fill="#fbdd37" style="fill: var(--color2, #fbdd37)" d="M90.89 21.481c1.331-2.951-2-7.245-2-7.245-3.756 4.745-1.384 7.84-0.399 8.808-0.943 1-1.288 2.014-1.288 2.014 1.040 1.16 2.145 1.605 3.228 1.605 3.519 0 6.792-4.701 6.792-4.701-1.576-0.604-2.92-0.847-4.063-0.847-0.867 0-1.62 0.139-2.269 0.366z"></path>
<path fill="#fbdd37" style="fill: var(--color2, #fbdd37)" d="M81.99 28.479c5.763-0.489 3.104-8.601 3.104-8.601-6.28 3.921-3.104 8.601-3.104 8.601z"></path>
<path fill="#fbdd37" style="fill: var(--color2, #fbdd37)" d="M73.204 31.628c-0.37 0-0.698-0.267-0.762-0.645-0.070-0.42 0.214-0.818 0.635-0.89 8.296-1.392 14.028-4.614 17.031-9.577 2.147-3.548 2.47-7.358 2.364-9.931-0.116-2.796-0.744-4.745-0.751-4.765-0.132-0.405 0.089-0.842 0.495-0.975s0.842 0.088 0.975 0.495c0.028 0.087 0.701 2.173 0.826 5.18 0.074 1.767-0.058 3.491-0.391 5.122-0.418 2.049-1.157 3.959-2.195 5.674-3.247 5.365-9.337 8.831-18.097 10.301-0.044 0.007-0.088 0.010-0.129 0.010z"></path>
<path fill="#fbdd37" style="fill: var(--color2, #fbdd37)" d="M92.645 6.135c2.518-3.81-3.81-6.135-3.81-6.135-0.647 5.813 3.81 6.135 3.81 6.135z"></path>
<path fill="#fbdd37" style="fill: var(--color2, #fbdd37)" d="M6.045 14.884c-0.883-1.127-1.041-2.192-0.791-3.15-4.219-0.127-3.212-6.635-3.212-6.635 3.454 1.439 4.073 3.583 4.029 5.038 1.421-1.859 3.98-3.040 3.98-3.040 1.347 6.962-4.006 7.787-4.006 7.787z"></path>
<path fill="#fbdd37" style="fill: var(--color2, #fbdd37)" d="M7.143 18.492c-0.73 0.454-1.408 0.644-2.032 0.644-3.311 0-5.111-5.366-5.111-5.366 0.352-0.029 0.688-0.043 1.007-0.043 5.926-0 6.135 4.765 6.135 4.765z"></path>
<path fill="#fbdd37" style="fill: var(--color2, #fbdd37)" d="M7.924 21.481c-1.331-2.951 2-7.245 2-7.245 3.756 4.745 1.384 7.84 0.398 8.808 0.943 1 1.288 2.014 1.288 2.014-1.040 1.16-2.145 1.605-3.227 1.605-3.519 0-6.792-4.701-6.792-4.701 1.576-0.604 2.921-0.847 4.064-0.847 0.867 0 1.62 0.139 2.269 0.366z"></path>
<path fill="#fbdd37" style="fill: var(--color2, #fbdd37)" d="M16.824 28.479c-5.763-0.489-3.104-8.601-3.104-8.601 6.28 3.921 3.104 8.601 3.104 8.601z"></path>
<path fill="#fbdd37" style="fill: var(--color2, #fbdd37)" d="M25.609 31.628c0.37 0 0.698-0.267 0.762-0.645 0.070-0.42-0.214-0.818-0.635-0.89-8.296-1.392-14.028-4.614-17.031-9.577-2.147-3.548-2.47-7.358-2.364-9.931 0.117-2.796 0.745-4.745 0.752-4.765 0.132-0.405-0.089-0.842-0.495-0.975s-0.842 0.088-0.975 0.495c-0.028 0.087-0.701 2.173-0.826 5.18-0.074 1.767 0.058 3.491 0.391 5.122 0.418 2.049 1.157 3.959 2.195 5.674 3.248 5.365 9.337 8.831 18.097 10.301 0.044 0.007 0.087 0.010 0.129 0.010z"></path>
<path fill="#fbdd37" style="fill: var(--color2, #fbdd37)" d="M6.168 6.135c-2.519-3.81 3.81-6.135 3.81-6.135 0.646 5.813-3.81 6.135-3.81 6.135z"></path>
</symbol>
<symbol id="icon-cards" viewBox="0 0 31 32">
<path fill="#889099" style="fill: var(--color5, #889099)" d="M29.567 15.002l-13.78-14.165c-0.543-0.558-1.254-0.837-1.966-0.837s-1.423 0.279-1.966 0.837l-7.547 7.755c-1.086 1.116-1.086 2.96 0 4.076l1.251 1.321h2.885l-2.693-2.804c-0.189-0.195-0.217-0.438-0.217-0.556s0.028-0.353 0.217-0.546l0.996-0.993 4.736 4.899h4.543l-7.007-7.238 4.279-4.415c0.189-0.194 0.409-0.231 0.523-0.231s0.335 0.024 0.523 0.218l13.781 14.163c0.189 0.195 0.218 0.419 0.218 0.537s-0.049 0.343-0.238 0.538l-0.781 0.784v2.965l2.225-2.266c1.085-1.118 1.105-2.927 0.018-4.043z"></path>
<path fill="#889099" style="fill: var(--color5, #889099)" d="M23.101 15.317h-19.491c-1.535 0-2.848 1.271-2.848 2.849v7.577h25.084v-7.577c0-1.578-1.21-2.849-2.745-2.849zM7.574 23.163c-0.544 0-1.037-0.223-1.4-0.582-0.363 0.359-0.857 0.582-1.4 0.582-1.117 0-2.023-0.93-2.023-2.080 0-1.148 0.906-2.079 2.023-2.079 0.544 0 1.037 0.222 1.4 0.581 0.363-0.359 0.856-0.581 1.4-0.581 1.117 0 2.023 0.931 2.023 2.079 0 1.15-0.906 2.080-2.023 2.080z"></path>
<path fill="#889099" style="fill: var(--color5, #889099)" d="M0.762 29.134c0 1.578 1.312 2.866 2.848 2.866h19.491c1.535 0 2.746-1.288 2.746-2.866v-0.168h-25.085v0.168z"></path>
</symbol>
<symbol id="icon-shopping-cart" viewBox="0 0 32 32">
<path fill="#889099" style="fill: var(--color5, #889099)" d="M24.615 27.077c0 0.68 0.241 1.26 0.721 1.74s1.061 0.721 1.741 0.721c0.679 0 1.259-0.241 1.74-0.721s0.721-1.060 0.721-1.74-0.24-1.26-0.721-1.741c-0.48-0.48-1.061-0.721-1.74-0.721-0.68 0-1.26 0.241-1.741 0.721s-0.721 1.061-0.721 1.741z"></path>
<path fill="#889099" style="fill: var(--color5, #889099)" d="M31.635 5.288c-0.244-0.244-0.532-0.365-0.865-0.365h-23.096c-0.013-0.090-0.042-0.253-0.087-0.49s-0.080-0.426-0.106-0.567c-0.026-0.141-0.074-0.311-0.144-0.509s-0.154-0.356-0.25-0.471c-0.096-0.116-0.224-0.215-0.384-0.298s-0.343-0.125-0.548-0.125h-4.923c-0.334 0-0.622 0.122-0.866 0.365s-0.365 0.532-0.365 0.865 0.122 0.622 0.365 0.865c0.244 0.244 0.532 0.365 0.866 0.365h3.923l3.404 15.827c-0.025 0.051-0.157 0.295-0.394 0.731s-0.426 0.817-0.567 1.144c-0.141 0.327-0.212 0.58-0.212 0.76 0 0.333 0.122 0.622 0.365 0.866 0.244 0.243 0.532 0.365 0.866 0.365h19.692c0.333 0 0.622-0.122 0.865-0.365s0.366-0.532 0.366-0.866c0-0.333-0.122-0.622-0.366-0.865s-0.532-0.366-0.865-0.366h-17.692c0.308-0.615 0.462-1.025 0.462-1.23 0-0.129-0.016-0.27-0.048-0.423s-0.071-0.324-0.115-0.51c-0.045-0.185-0.074-0.323-0.086-0.413l20.077-2.346c0.32-0.039 0.583-0.176 0.788-0.414s0.308-0.509 0.308-0.817v-9.846c-0-0.333-0.122-0.622-0.365-0.866z"></path>
<path fill="#889099" style="fill: var(--color5, #889099)" d="M7.384 27.077c0 0.68 0.24 1.26 0.721 1.74s1.061 0.721 1.741 0.721c0.679 0 1.259-0.241 1.74-0.721s0.721-1.060 0.721-1.74-0.24-1.26-0.721-1.741c-0.481-0.48-1.061-0.721-1.74-0.721s-1.26 0.241-1.741 0.721c-0.481 0.481-0.721 1.061-0.721 1.741z"></path>
</symbol>
<symbol id="icon-delivery-truck" viewBox="0 0 33 32">
<path fill="#889099" style="fill: var(--color5, #889099)" d="M1.154 19.74v-13.615c0-0.757 0.63-1.37 1.408-1.37h13.986c0.777 0 1.408 0.613 1.408 1.37v13.615c0 0.252-0.21 0.457-0.469 0.457h-15.863c-0.259 0-0.469-0.204-0.469-0.457zM12.448 24.404c0 1.569-1.307 2.841-2.92 2.841s-2.92-1.272-2.92-2.841c0-1.569 1.307-2.841 2.92-2.841s2.92 1.272 2.92 2.841zM10.988 24.404c0-0.785-0.654-1.421-1.46-1.421s-1.46 0.636-1.46 1.421c0 0.785 0.654 1.421 1.46 1.421s1.46-0.636 1.46-1.421zM7.013 21.563h-6.543c-0.259 0-0.469 0.204-0.469 0.457v1.385c0 0.252 0.21 0.457 0.469 0.457h5.245c0.137-0.914 0.611-1.722 1.299-2.299zM27.727 24.404c0 1.569-1.307 2.841-2.92 2.841s-2.92-1.272-2.92-2.841c0-1.569 1.307-2.841 2.92-2.841s2.92 1.272 2.92 2.841zM26.267 24.404c0-0.785-0.654-1.421-1.46-1.421s-1.46 0.636-1.46 1.421c0 0.785 0.654 1.421 1.46 1.421s1.46-0.636 1.46-1.421zM32.889 22.019v1.385c0 0.252-0.21 0.457-0.469 0.457h-3.8c-0.272-1.814-1.876-3.212-3.813-3.212s-3.542 1.398-3.814 3.212h-7.651c-0.137-0.914-0.611-1.722-1.299-2.299h7.255v-13.061c0-0.504 0.42-0.913 0.939-0.913h4.431c1.248 0 2.413 0.603 3.112 1.609l2.856 4.116c0.419 0.604 0.643 1.316 0.643 2.044v6.205h1.142c0.259 0 0.469 0.204 0.469 0.457zM28.128 13.419l-2.284-3.158c-0.088-0.122-0.231-0.194-0.384-0.194h-3.563c-0.259 0-0.469 0.204-0.469 0.457v3.158c0 0.252 0.21 0.457 0.469 0.457h5.847c0.38 0 0.602-0.417 0.384-0.719z"></path>
</symbol>
<symbol id="icon-search-1" viewBox="0 0 32 32">
<path d="M30.977 29.147l-7.616-7.921c1.958-2.328 3.031-5.257 3.031-8.306 0-7.124-5.796-12.92-12.92-12.92s-12.92 5.796-12.92 12.92c0 7.124 5.796 12.92 12.92 12.92 2.674 0 5.223-0.807 7.402-2.338l7.674 7.981c0.321 0.333 0.752 0.517 1.214 0.517 0.438 0 0.853-0.167 1.168-0.47 0.669-0.644 0.691-1.713 0.047-2.383zM13.472 3.37c5.266 0 9.55 4.284 9.55 9.55s-4.284 9.55-9.55 9.55c-5.266 0-9.55-4.284-9.55-9.55s4.284-9.55 9.55-9.55z"></path>
</symbol>
<symbol id="search" viewBox="0 0 16 16">
<path d="M15.4886 14.5735L11.6805 10.6129C12.6597 9.44901 13.1961 7.98455 13.1961 6.45999C13.1961 2.89801 10.2981 0 6.73612 0C3.17413 0 0.276123 2.89801 0.276123 6.45999C0.276123 10.022 3.17413 12.92 6.73612 12.92C8.07334 12.92 9.34764 12.5167 10.4371 11.751L14.2741 15.7416C14.4345 15.9082 14.6502 16 14.8813 16C15.1001 16 15.3077 15.9166 15.4653 15.7649C15.8 15.4428 15.8107 14.9085 15.4886 14.5735ZM6.73612 1.68522C9.36899 1.68522 11.5109 3.82713 11.5109 6.45999C11.5109 9.09286 9.36899 11.2348 6.73612 11.2348C4.10325 11.2348 1.96134 9.09286 1.96134 6.45999C1.96134 3.82713 4.10325 1.68522 6.73612 1.68522Z" fill="#373D43"/>
</symbol>
<symbol id="burger" viewBox="0 0 35 25">
<path d="M4,10h24c1.104,0,2-0.896,2-2s-0.896-2-2-2H4C2.896,6,2,6.896,2,8S2.896,10,4,10z M28,14H4c-1.104,0-2,0.896-2,2  s0.896,2,2,2h24c1.104,0,2-0.896,2-2S29.104,14,28,14z M28,22H4c-1.104,0-2,0.896-2,2s0.896,2,2,2h24c1.104,0,2-0.896,2-2  S29.104,22,28,22z"/>
</symbol>
</defs>
</svg>
