<!-- Generated by IcoMoon.io -->
<svg version="1.1" xmlns="http://www.w3.org/2000/svg" width="39" height="32" viewBox="0 0 39 32">
<title>untitled</title>
<path fill="#edf1f7" d="M0.125 27.448c0-0.928 0.743-1.666 1.652-1.848 1.664-0.333 2.94-1.102 3.828-2.308 0.967-1.312 1.531-3.313 1.694-6.003 0.057-0.948-0.721-1.72-1.671-1.72h-3.908c-0.95 0-1.72-0.77-1.72-1.72v-12.129c0-0.95 0.77-1.72 1.72-1.72h13.25c0.95 0 1.72 0.77 1.72 1.72v10.735c0 6.726-1.287 11.667-3.861 14.823-2.317 2.84-5.978 4.402-10.985 4.686-0.949 0.054-1.72-0.723-1.72-1.673v-2.843zM21.798 27.448c0-0.928 0.743-1.666 1.652-1.848 1.664-0.333 2.94-1.102 3.828-2.308 0.967-1.312 1.531-3.313 1.694-6.003 0.057-0.948-0.721-1.72-1.671-1.72h-3.908c-0.95 0-1.72-0.77-1.72-1.72v-12.129c0-0.95 0.77-1.72 1.72-1.72h13.25c0.95 0 1.72 0.77 1.72 1.72v10.735c0 6.726-1.287 11.667-3.861 14.823-2.317 2.84-5.978 4.402-10.985 4.686-0.949 0.054-1.72-0.723-1.72-1.673v-2.843z"></path>
</svg>
